<?xml version="1.0" encoding="UTF-8"?>
<svg width="24px" height="24px" viewBox="0 0 24 24" version="1.1" xmlns="http://www.w3.org/2000/svg" xmlns:xlink="http://www.w3.org/1999/xlink">
    <!-- Generator: Sketch 42 (36781) - http://www.bohemiancoding.com/sketch -->
    <title>search</title>
    <desc>Created with Sketch.</desc>
    <defs></defs>
    <g id="Symbols" stroke="none" stroke-width="1" fill="none" fill-rule="evenodd">
        <g id="search" fill="#FFFFFF">
            <path d="M15.7738983,14.123094 L21.2421875,19.5913832 L19.5913832,21.2421875 L14.123094,15.7738983 L14.123094,14.8969085 L13.8135682,14.5873827 C12.472283,15.7223163 10.9246695,16.2897746 9.17068113,16.2897746 C7.17594931,16.2897746 5.48217226,15.5933485 4.08929918,14.2004755 C2.6964261,12.8076024 2,11.1224232 2,9.14488732 C2,7.16735146 2.6964261,5.48217226 4.08929918,4.08929918 C5.48217226,2.6964261 7.16735146,2 9.14488732,2 C11.1224232,2 12.8076024,2.6964261 14.2004755,4.08929918 C15.5933485,5.48217226 16.2897746,7.17594931 16.2897746,9.17068113 C16.2897746,10.9246695 15.7223163,12.472283 14.5873827,13.8135682 L14.8969085,14.123094 L15.7738983,14.123094 Z M9.17068113,14.123094 C10.5463583,14.123094 11.7156663,13.6416142 12.6786402,12.6786402 C13.6416142,11.7156663 14.123094,10.5463583 14.123094,9.17068113 C14.123094,7.79500401 13.6416142,6.625696 12.6786402,5.66272202 C11.7156663,4.69974803 10.5463583,4.21826826 9.17068113,4.21826826 C7.79500401,4.21826826 6.625696,4.69974803 5.66272202,5.66272202 C4.69974803,6.625696 4.21826826,7.79500401 4.21826826,9.17068113 C4.21826826,10.5463583 4.69974803,11.7156663 5.66272202,12.6786402 C6.625696,13.6416142 7.79500401,14.123094 9.17068113,14.123094 Z" id="Search-Icon"></path>
        </g>
    </g>
</svg>