<?xml version="1.0" encoding="UTF-8"?>
<svg width="560px" height="120px" viewBox="0 0 560 120" version="1.1" xmlns="http://www.w3.org/2000/svg" xmlns:xlink="http://www.w3.org/1999/xlink">
    <!-- Generator: Sketch 46.1 (44463) - http://www.bohemiancoding.com/sketch -->
    <title>data-africa-logo-wordmark</title>
    <desc>Created with Sketch.</desc>
    <defs></defs>
    <g id="Symbols" stroke="none" stroke-width="1" fill="none" fill-rule="evenodd">
        <g id="data-africa-logo-wordmark">
            <g id="Group">
                <path d="M187.43,47.53 C190.730017,50.9500171 192.38,55.8399682 192.38,62.2 C192.38,68.5600318 190.730017,73.4499829 187.43,76.87 C184.129984,80.2900171 179.380031,82 173.18,82 L156.38,82 L156.38,42.4 L173.18,42.4 C179.380031,42.4 184.129984,44.1099829 187.43,47.53 Z M179.48,71.2 C181.040008,69.19999 181.82,66.20002 181.82,62.2 C181.82,58.19998 181.040008,55.20001 179.48,53.2 C177.919992,51.19999 175.480017,50.2 172.16,50.2 L166.7,50.2 L166.7,74.2 L172.16,74.2 C175.480017,74.2 177.919992,73.20001 179.48,71.2 Z M222.64,73.06 L208.96,73.06 L206.2,82 L195.82,82 L209.74,42.4 L222.1,42.4 L235.96,82 L225.34,82 L222.64,73.06 Z M220.48,66.04 L217.6,56.56 L215.86,50.32 L215.74,50.32 L214.12,56.5 L211.12,66.04 L220.48,66.04 Z M270.54,50.38 L257.64,50.38 L257.64,82 L247.32,82 L247.32,50.38 L234.36,50.38 L234.36,42.4 L270.54,42.4 L270.54,50.38 Z M295.76,73.06 L282.08,73.06 L279.32,82 L268.94,82 L282.86,42.4 L295.22,42.4 L309.08,82 L298.46,82 L295.76,73.06 Z M293.6,66.04 L290.72,56.56 L288.98,50.32 L288.86,50.32 L287.24,56.5 L284.24,66.04 L293.6,66.04 Z" id="DATA" fill="#AFAFAF"></path>
                <g id="Group-2" fill="#70E298">
                    <path d="M122.257646,92.3076923 C120.722687,95.5415156 118.92724,98.6274921 116.898443,101.538462 L10.9184015,101.538462 C8.88960443,98.6274921 7.09415775,95.5415156 5.55919931,92.3076923 L122.257646,92.3076923 Z M125.797063,83.0769231 C126.68675,80.0850688 127.36575,77.0024013 127.816845,73.8461538 L-2.08721929e-14,73.8461538 C0.451094523,77.0024013 1.13009494,80.0850688 2.019782,83.0769231 L125.797063,83.0769231 Z M109.09261,110.769231 C105.50493,114.287768 101.508737,117.390647 97.1818344,120 L30.6350105,120 C26.3081077,117.390647 22.3119145,114.287768 18.7242348,110.769231 L109.09261,110.769231 Z" id="Combined-Shape"></path>
                    <path d="M68.5200112,18.6894242 L68.5200112,0 L59.2968337,0 L59.2968337,18.6894242 C60.813614,18.5387051 62.352014,18.4615385 63.9084225,18.4615385 C65.4648309,18.4615385 67.0032309,18.5387051 68.5200112,18.6894242 Z" id="Combined-Shape"></path>
                    <path d="M23.8584986,41.7184999 L7.0260547,34.224213 L3.27465041,42.650005 L20.1050767,50.1433936 C21.0779759,47.1921622 22.340329,44.3726426 23.8584986,41.7184999 Z" id="Combined-Shape"></path>
                    <path d="M42.7803291,23.5795891 L32.6785513,8.02421533 L24.9433437,13.0475179 L35.0512375,28.6123094 C37.4434327,26.6892908 40.0313443,25.0001601 42.7803291,23.5795891 Z" id="Combined-Shape"></path>
                    <path d="M107.712053,50.1442586 L124.402104,42.7133691 L120.6507,34.2875771 L103.958799,41.7192905 C105.476915,44.3734619 106.739212,47.1930062 107.712053,50.1442586 Z" id="Combined-Shape"></path>
                    <path d="M92.7655175,28.6122372 L103.166894,12.5955217 L95.4316865,7.57221921 L85.0364133,23.5795362 C87.7854018,25.0001003 90.3733177,26.6892246 92.7655175,28.6122372 Z" id="Combined-Shape"></path>
                    <path d="M100.801133,64.6153846 C100.801133,44.2233323 84.2837037,27.6923077 63.9084225,27.6923077 C43.5331412,27.6923077 27.0157122,44.2233323 27.0157122,64.6153846 L36.2388898,64.6153846 C36.2388898,49.3213454 48.6269615,36.9230769 63.9084225,36.9230769 C79.1898834,36.9230769 91.5779552,49.3213454 91.5779552,64.6153846 L100.801133,64.6153846 Z" id="Combined-Shape" fill-rule="nonzero"></path>
                </g>
                <path d="M357.06,73.06 L343.38,73.06 L340.62,82 L330.24,82 L344.16,42.4 L356.52,42.4 L370.38,82 L359.76,82 L357.06,73.06 Z M354.9,66.04 L352.02,56.56 L350.28,50.32 L350.16,50.32 L348.54,56.5 L345.54,66.04 L354.9,66.04 Z M387.32,50.38 L387.32,58.78 L403.64,58.78 L403.64,66.76 L387.32,66.76 L387.32,82 L377,82 L377,42.4 L407.78,42.4 L407.78,50.38 L387.32,50.38 Z M432.04,67.54 L425.86,67.54 L425.86,82 L415.72,82 L415.72,42.4 L434.62,42.4 C439.420024,42.4 443.109987,43.4799892 445.69,45.64 C448.270013,47.8000108 449.56,50.9199796 449.56,55 C449.56,57.8800144 448.900007,60.2799904 447.58,62.2 C446.259993,64.1200096 444.340013,65.5399954 441.82,66.46 L451.9,82 L440.5,82 L432.04,67.54 Z M425.86,60.22 L432.88,60.22 C435.080011,60.22 436.679995,59.820004 437.68,59.02 C438.680005,58.219996 439.18,56.9400088 439.18,55.18 C439.18,53.4599914 438.680005,52.200004 437.68,51.4 C436.679995,50.599996 435.080011,50.2 432.88,50.2 L425.86,50.2 L425.86,60.22 Z M469.38,82 L459.06,82 L459.06,42.4 L469.38,42.4 L469.38,82 Z M509,79.63 C505.959985,81.6100099 502.260022,82.6 497.9,82.6 C493.89998,82.6 490.440015,81.7900081 487.52,80.17 C484.599985,78.5499919 482.360008,76.2100153 480.8,73.15 C479.239992,70.0899847 478.46,66.4400212 478.46,62.2 C478.46,57.999979 479.239992,54.3600154 480.8,51.28 C482.360008,48.1999846 484.599985,45.8500081 487.52,44.23 C490.440015,42.6099919 493.87998,41.8 497.84,41.8 C502.160022,41.8 505.819985,42.7099909 508.82,44.53 C511.820015,46.3500091 513.799995,49.0799818 514.76,52.72 L505.7,56.38 C505.139997,53.979988 504.280006,52.3000048 503.12,51.34 C501.959994,50.3799952 500.320011,49.9 498.2,49.9 C495.279985,49.9 493.020008,50.9499895 491.42,53.05 C489.819992,55.1500105 489.02,58.19998 489.02,62.2 C489.02,66.20002 489.789992,69.2499895 491.33,71.35 C492.870008,73.4500105 495.099985,74.5 498.02,74.5 C500.220011,74.5 501.959994,73.9800052 503.24,72.94 C504.520006,71.8999948 505.399998,70.2600112 505.88,68.02 L515.24,70.66 C514.119994,74.66002 512.040015,77.6499901 509,79.63 Z M545.68,73.06 L532,73.06 L529.24,82 L518.86,82 L532.78,42.4 L545.14,42.4 L559,82 L548.38,82 L545.68,73.06 Z M543.52,66.04 L540.64,56.56 L538.9,50.32 L538.78,50.32 L537.16,56.5 L534.16,66.04 L543.52,66.04 Z" id="AFRICA" fill="#70E298"></path>
            </g>
        </g>
    </g>
</svg>