<?xml version="1.0" encoding="UTF-8"?>
<svg width="60px" height="60px" viewBox="0 0 60 60" version="1.1" xmlns="http://www.w3.org/2000/svg" xmlns:xlink="http://www.w3.org/1999/xlink">
    <!-- Generator: Sketch 46.1 (44463) - http://www.bohemiancoding.com/sketch -->
    <title>data-africa-icon</title>
    <desc>Created with Sketch.</desc>
    <defs></defs>
    <g id="Symbols" stroke="none" stroke-width="1" fill="none" fill-rule="evenodd">
        <g id="data-africa-icon" fill="#70E298">
            <g id="Group-2">
                <path d="M57.3082714,43.2692308 C56.5887596,44.7850854 55.747144,46.2316369 54.7961454,47.5961538 L5.1180007,47.5961538 C4.16700208,46.2316369 3.32538644,44.7850854 2.60587468,43.2692308 L57.3082714,43.2692308 Z M58.9673732,38.9423077 C59.3844141,37.539876 59.7026955,36.0948756 59.9141461,34.6153846 L5.32907052e-15,34.6153846 C0.211450558,36.0948756 0.529732003,37.539876 0.946772813,38.9423077 L58.9673732,38.9423077 Z M51.137161,51.9230769 C49.4554361,53.5723914 47.5822206,55.026866 45.5539849,56.25 L14.3601612,56.25 C12.3319255,55.026866 10.4587099,53.5723914 8.77698505,51.9230769 L51.1371592,51.9230769 Z" id="Combined-Shape"></path>
                <path d="M32.1187553,8.76066759 L32.1187553,8.8817842e-16 L27.7953908,8.8817842e-16 L27.7953908,8.76066759 C28.5063816,8.69001802 29.2275066,8.65384615 29.957073,8.65384615 C30.6866395,8.65384615 31.4077645,8.69001802 32.1187553,8.76066759 Z" id="Combined-Shape"></path>
                <path d="M11.1836712,19.5555468 L3.29346314,16.0425999 L1.53499238,19.9921898 L9.42425469,23.5047157 C9.88030121,22.121326 10.4720292,20.7996762 11.1836712,19.5555468 Z" id="Combined-Shape"></path>
                <path d="M20.0532793,11.0529324 L15.3180709,3.76135094 L11.6921924,6.116024 L16.4302676,13.41202 C17.5516091,12.5106051 18.7646927,11.7188251 20.0532793,11.0529324 Z" id="Combined-Shape"></path>
                <path d="M50.490025,23.5051212 L58.3134865,20.0218917 L56.5550157,16.0723018 L48.7306868,19.5559174 C49.4423039,20.8000603 50.0340058,22.1217216 50.490025,23.5051212 Z" id="Combined-Shape"></path>
                <path d="M43.4838363,13.4119862 L48.3594816,5.90415082 L44.7336031,3.54947776 L39.8608187,11.0529076 C41.1494071,11.718797 42.3624927,12.510574 43.4838363,13.4119862 Z" id="Combined-Shape"></path>
                <path d="M47.250531,30.2884615 C47.250531,20.729687 39.5079861,12.9807692 29.957073,12.9807692 C20.4061599,12.9807692 12.6636151,20.729687 12.6636151,30.2884615 L16.9869796,30.2884615 C16.9869796,23.1193807 22.7938882,17.3076923 29.957073,17.3076923 C37.1202578,17.3076923 42.9271665,23.1193807 42.9271665,30.2884615 L47.250531,30.2884615 Z" id="Combined-Shape" fill-rule="nonzero"></path>
            </g>
        </g>
    </g>
</svg>