<?xml version="1.0" encoding="UTF-8"?>
<svg width="36px" height="36px" viewBox="0 0 36 36" version="1.1" xmlns="http://www.w3.org/2000/svg" xmlns:xlink="http://www.w3.org/1999/xlink">
    <!-- Generator: Sketch 42 (36781) - http://www.bohemiancoding.com/sketch -->
    <title>Agriculture Icon</title>
    <desc>Created with Sketch.</desc>
    <defs></defs>
    <g id="Symbols" stroke="none" stroke-width="1" fill="none" fill-rule="evenodd">
        <g id="Agriculture-Icon" fill="#F3F3F3">
            <path d="M18.8497677,26.7500548 C17.9077847,27.2748196 16.4906983,27.6980477 15.0438783,27.6989966 C13.5932626,27.6989966 12.1711151,27.2764012 11.2281832,26.7500548 C12.1701662,26.2230758 13.591681,25.8023782 15.0438783,25.801113 C16.4906983,25.8014293 17.9065195,26.2262389 18.8497677,26.7500548 Z M25.8086744,19.7911481 C24.8666915,20.3159129 23.4499213,20.739141 22.002785,20.7400899 C20.5521693,20.7400899 19.1297055,20.3174945 18.1874063,19.7911481 C19.1290729,19.2638528 20.550904,18.8431552 22.002785,18.8422063 C23.4499213,18.8425226 24.8654262,19.2670159 25.8086744,19.7911481 Z M11.9696231,20.107462 C11.9693068,21.5530168 11.5539866,22.9704195 11.030487,23.9130351 C10.5054059,22.9713685 10.0730047,21.5561799 10.0717395,20.107462 C10.0720558,18.65653 10.4946512,17.2248931 11.0206813,16.2822775 C11.5482929,17.2236278 11.9686742,18.6549484 11.9696231,20.107462 Z M18.9386519,13.1485553 C18.9383356,14.5994874 18.5157401,16.0216349 17.9897101,16.9642504 C17.4624147,16.0225838 17.0417172,14.6007526 17.0404519,13.1485553 C17.0407682,11.701419 17.4652615,10.2761084 17.9897101,9.33317656 C18.5144749,10.2748432 18.9373866,11.701419 18.9386519,13.1485553 Z M27.0046574,10.8552792 C25.9140069,11.9443481 24.5133688,12.6952774 23.416392,12.9903984 C23.7118293,11.8965847 24.4731969,10.5006913 25.5613169,9.41225505 C26.6519673,8.32318614 28.0424834,7.56245111 29.1397765,7.26733021 C28.8459208,8.36240907 28.0953079,9.76399615 27.0046574,10.8552792 Z M21.3802792,13.692299 L20.7770685,14.2951934 C20.8143936,13.9178308 20.8362192,13.534142 20.8365355,13.1485553 C20.8330561,10.7104075 20.0928814,8.36209276 18.6024102,7.05951195 C18.4129381,6.89091662 18.153877,6.80329765 17.9008258,6.82227649 C17.7002828,6.84125533 17.507015,6.92571115 17.3567659,7.05951195 C15.8716719,8.36557221 15.1428846,10.7135706 15.1425683,13.1485553 C15.1460477,15.1489247 15.6357017,17.0853986 16.6352538,18.4370081 C15.6746083,19.406194 14.6503838,20.4263065 13.8083561,21.2642221 C13.8456811,20.8833801 13.8675068,20.4965282 13.8675068,20.107462 C13.8643436,17.6693142 13.1339747,15.3111937 11.6435034,14.0086129 C11.4524498,13.8434971 11.1933887,13.7596739 10.9416028,13.7811832 C10.7413761,13.800162 10.5481083,13.8846179 10.3978591,14.0184187 C8.91276518,15.3244789 8.17448844,17.6724773 8.17385581,20.107462 C8.17733527,22.1078314 8.67426447,24.0443054 9.67634704,25.3959148 C7.90056057,27.1878333 6.06404182,29.0120158 4.24966505,30.8225968 C3.8628131,31.1657974 3.84351795,31.842393 4.21044213,32.2064703 C4.57768261,32.570864 5.25396182,32.5468241 5.59399931,32.1571253 L9.69627482,28.0548498 C11.0516801,29.084768 13.015357,29.596564 15.0438783,29.5968803 C17.4820262,29.5937172 19.8303409,28.8535425 21.1329217,27.3627549 C21.4302568,27.0211359 21.4302568,26.4593623 21.1329217,26.1174269 C19.8271777,24.632333 17.478863,23.903862 15.0438783,23.9032293 C14.6174871,23.9035457 14.1945754,23.9272692 13.7786225,23.9728184 L16.6551815,21.0959431 C18.0102705,22.125545 19.9742637,22.6376573 22.002785,22.6379736 C24.4409329,22.6348104 26.7892476,21.8946358 28.0918284,20.4041645 C28.3891635,20.0625455 28.3891635,19.5004556 28.0918284,19.1585202 C26.7860845,17.6734263 24.4380861,16.9446389 22.002785,16.9443226 C21.5763938,16.9446389 21.1534821,16.9686788 20.7375293,17.0135954 L22.7144914,15.0366332 C24.6269255,14.9866556 26.6946697,13.8517212 28.3489916,12.1996135 C30.1320533,10.4159192 31.3128533,8.1520603 31.1758893,6.12069217 C31.1436253,5.66646535 30.7409577,5.2682261 30.2864145,5.24070678 C27.8507972,5.20559594 25.5417054,6.77356414 24.2169826,8.06792079 C22.5655075,9.72002851 21.4299405,11.7823954 21.3802792,13.692299 Z" id="Fill-1" transform="translate(17.566815, 18.852690) rotate(10.000000) translate(-17.566815, -18.852690) "></path>
        </g>
    </g>
</svg>